#!OML:ASF I:\Actors\actors\Patient Classification 1\Patient 1\Session 1\Subject1.ASF
:FULLY-SPECIFIED
:DEGREES
713
root -1.47859 17.6925 8.71685 10.5074 1.56214 -9.52729
lowerback 3.29301 4.52347 7.0152
upperback -14.7237 7.05456 -1.17127
thorax -17.5842 2.21923 -6.45337
lowerneck -23.8565 -13.0761 8.04145
upperneck 27.7591 -20.2365 -5.62983
head 11.4979 -9.02445 -6.4518
rclavicle -3.77691e-014 -3.49861e-014
rhumerus 99.8158 33.962 -64.5061
rradius 94.936
rwrist 35.9954
rhand -22.39 -26.4734
rfingers 7.12502
rthumb 4.03218 303.585
lclavicle -3.77691e-014 -3.49861e-014
lhumerus 89.2284 -1.90846 83.3125
lradius 113.344
lwrist 44.9951
lhand -34.1705 -28.2252
lfingers 7.12502
lthumb -7.34415 1.62732
rfemur 0.583194 22.7131 31.5744
rtibia -1.54251
rfoot -12.8166 -17.4879
rtoes 7.88896
lfemur 4.78053 -42.206 -8.76439
ltibia -2.78552
lfoot -22.721 50.0003
ltoes 4.04427
714
root -1.46583 17.706 8.68321 10.7132 2.03861 -9.5704
lowerback 3.92689 4.23087 6.71753
upperback -14.4796 6.68322 -0.979391
thorax -17.8 2.09124 -6.07004
lowerneck -24.5172 -12.9485 9.08214
upperneck 27.0557 -20.0849 -6.70499
head 11.0977 -9.07296 -6.90045
rclavicle 7.95139e-015 1.59028e-014
rhumerus 98.2815 34.0083 -68.4122
rradius 91.8457
rwrist 35.492
rhand -21.3506 -26.4465
rfingers 7.12502
rthumb 5.03581 303.633
lclavicle 7.95139e-015 1.59028e-014
lhumerus 89.5982 -3.99352 84.2458
lradius 108.564
lwrist 45.3284
lhand -33.0932 -27.3835
lfingers 7.12502
lthumb -6.30415 2.50267
rfemur 0.206234 22.8049 31.4879
rtibia -1.57112
rfoot -12.6777 -17.998
rtoes 7.80015
lfemur 3.9076 -42.1516 -8.1123
ltibia -2.6917
lfoot -22.078 49.6954
ltoes 3.74494
715
root -1.45247 17.7199 8.642 10.9242 2.52419 -9.57762
lowerback 4.55032 3.949 6.37322
upperback -14.2201 6.31561 -0.778352
thorax -17.9879 1.97638 -5.64077
lowerneck -24.813 -12.7956 9.74556
upperneck 26.2842 -19.9252 -7.17045
head 10.7409 -9.0657 -7.06424
rclavicle 5.1684e-015 -7.15625e-015
rhumerus 96.4608 33.9748 -72.4595
rradius 88.6213
rwrist 35.0387
rhand -20.4515 -26.5846
rfingers 7.12502
rthumb 5.90392 303.518
lclavicle 5.1684e-015 -7.15625e-015
lhumerus 89.6309 -5.99045 85.0423
lradius 103.638
lwrist 45.4307
lhand -31.9296 -26.7306
lfingers 7.12502
lthumb -5.18073 3.18603
rfemur -0.204011 22.9084 31.3441
rtibia -1.60108
rfoot -12.4995 -18.5519
rtoes 7.61446
lfemur 2.96239 -42.0488 -7.45641
ltibia -2.58213
lfoot -21.392 49.3279
ltoes 3.45933
716
root -1.43827 17.7339 8.59327 11.1389 3.0125 -9.56675
lowerback 5.15739 3.68395 6.01096
upperback -13.9418 5.96404 -0.561666
thorax -18.1356 1.87745 -5.1757
lowerneck -24.8652 -12.6274 10.0731
upperneck 25.4977 -19.7506 -7.13865
head 10.4466 -9.00575 -7.004
rclavicle -1.8487e-014 -1.43125e-014
rhumerus 94.4121 33.7896 -76.5409
rradius 85.2703
rwrist 34.5579
rhand -19.779 -27.006
rfingers 7.12502
rthumb 6.55321 303.115
lclavicle -1.8487e-014 -1.43125e-014
lhumerus 89.3425 -7.84244 85.7484
lradius 98.6007
lwrist 45.3304
lhand -30.7661 -26.0961
lfingers 7.12502
lthumb -4.05732 3.84501
rfemur -0.647953 23.0171 31.1598
rtibia -1.62822
rfoot -12.2851 -19.1327
rtoes 7.41075
lfemur 1.95992 -41.9138 -6.78991
ltibia -2.45529
lfoot -20.6827 48.9108
ltoes 3.18657
717
root -1.42292 17.7477 8.53697 11.3494 3.50003 -9.56111
lowerback 5.7498 3.44199 5.66954
upperback -13.6341 5.64359 -0.32341
thorax -18.2253 1.79702 -4.69282
lowerneck -24.8166 -12.4796 10.1103
upperneck 24.7504 -19.5901 -6.76898
head 10.2263 -8.92188 -6.79969
rclavicle -2.82274e-014 -2.54444e-014
rhumerus 92.2292 33.3742 -80.5165
rradius 81.7824
rwrist 33.9469
rhand -19.4014 -27.8324
rfingers 7.12502
rthumb 6.91764 302.301
lclavicle -2.82274e-014 -2.54444e-014
lhumerus 88.7954 -9.48973 86.411
lradius 93.4381
lwrist 45.1483
lhand -29.6584 -25.4303
lfingers 7.12502
lthumb -2.98761 4.52849
rfemur -1.12503 23.1179 30.9598
rtibia -1.64168
rfoot -12.0394 -19.7173
rtoes 7.22947
lfemur 0.921038 -41.7615 -6.10204
ltibia -2.31088
lfoot -19.986 48.4518
ltoes 2.95038
